<svg width="393" height="852" viewBox="0 0 393 852" fill="none" xmlns="http://www.w3.org/2000/svg">
<g clip-path="url(#clip0_2028_14498)">
<rect width="393" height="852" rx="50" fill="white"/>
<rect width="393" height="59" fill="white"/>
<rect width="393" height="53" fill="white"/>
<path d="M47.626 20.9805V33H45.1191V23.3545H45.0527L42.2969 25.0811V22.873L45.2686 20.9805H47.626ZM50.1149 33L55.1784 23.1055V23.0225H49.2848V20.9805H57.7682V23.0557L52.7047 33H50.1149ZM59.5598 31.5391C58.7796 31.5391 58.1487 30.9082 58.1653 30.1445C58.1487 29.3809 58.7796 28.7666 59.5598 28.7666C60.2903 28.7666 60.9378 29.3809 60.9378 30.1445C60.9378 30.9082 60.2903 31.5391 59.5598 31.5391ZM59.5598 25.2139C58.7796 25.2139 58.1487 24.583 58.1653 23.8193C58.1487 23.0557 58.7796 22.4414 59.5598 22.4414C60.2903 22.4414 60.9378 23.0557 60.9378 23.8193C60.9378 24.583 60.2903 25.2139 59.5598 25.2139ZM61.9325 30.875V28.8994L67.0126 20.9805H70.1503V28.8662H71.6777V30.875H70.1503V33H67.7763V30.875H61.9325ZM64.456 28.8662H67.8095V23.7197H67.6933L64.456 28.7666V28.8662ZM76.9888 33.166C74.3492 33.166 72.4566 31.7051 72.4068 29.6133H74.9302C74.98 30.5098 75.8433 31.1074 77.0054 31.1074C78.2007 31.1074 79.064 30.4268 79.0474 29.4639C79.064 28.4844 78.1841 27.7871 76.773 27.7871H75.6607V25.9443H76.773C77.9517 25.9443 78.7818 25.2969 78.7818 24.3506C78.7818 23.4375 78.0845 22.8066 77.022 22.8066C75.9595 22.8066 75.0796 23.4043 75.0464 24.3174H72.6558C72.689 22.2422 74.565 20.8145 77.022 20.8145C79.5289 20.8145 81.2056 22.292 81.189 24.2012C81.2056 25.5459 80.2593 26.5088 78.9146 26.7412V26.8408C80.6744 27.0566 81.6539 28.1357 81.6373 29.6299C81.6539 31.6885 79.6949 33.166 76.9888 33.166Z" fill="black"/>
<rect x="282" y="28" width="3" height="5" rx="1" fill="black"/>
<rect x="287.333" y="26" width="3" height="7" rx="1" fill="black"/>
<rect x="292.667" y="23" width="3" height="10" rx="1" fill="black"/>
<rect x="298" y="20.5" width="3" height="12.5" rx="1" fill="black" fill-opacity="0.2"/>
<path d="M316.995 32.5006C317.085 32.5006 317.169 32.4762 317.245 32.4272C317.362 32.349 317.475 32.256 317.574 32.1484L319.268 30.4607C319.325 30.402 319.362 30.3286 319.372 30.2503C319.381 30.172 319.358 30.0889 319.306 30.0302C319.038 29.6975 318.708 29.4285 318.341 29.2328C317.494 28.7778 316.487 28.7827 315.645 29.2426C315.268 29.4431 314.939 29.7269 314.68 30.0742C314.642 30.1329 314.628 30.2014 314.642 30.2699C314.656 30.3433 314.699 30.4117 314.751 30.4607L316.435 32.1484C316.534 32.2511 316.647 32.3441 316.765 32.4223C316.835 32.4713 316.915 32.4957 317 32.5006H316.995ZM312.925 28.5675C312.991 28.6408 313.089 28.68 313.188 28.6751C313.282 28.6653 313.372 28.6164 313.438 28.543C313.885 28.044 314.421 27.6429 315.014 27.364C315.631 27.0607 316.308 26.9042 316.995 26.9091C317.687 26.9042 318.369 27.0607 318.991 27.3738C319.588 27.6625 320.125 28.0636 320.576 28.5577C320.633 28.6311 320.718 28.6751 320.812 28.68C320.906 28.68 321 28.636 321.061 28.5577L322.134 27.4619C322.195 27.4081 322.233 27.3298 322.238 27.2515C322.238 27.1684 322.214 27.0901 322.162 27.0265C321.781 26.5618 321.334 26.1606 320.835 25.8378C319.682 25.0942 318.351 24.7077 316.995 24.7126C315.64 24.7077 314.313 25.0991 313.16 25.8378C312.656 26.1557 312.205 26.5569 311.824 27.0265C311.772 27.0852 311.748 27.1684 311.748 27.2466C311.758 27.3298 311.791 27.4081 311.852 27.4668L312.925 28.5724V28.5675ZM310.059 25.5883C310.125 25.6567 310.209 25.6959 310.304 25.691C310.398 25.691 310.487 25.647 310.548 25.5736C311.367 24.6637 312.365 23.9397 313.471 23.4456C314.586 22.9564 315.786 22.7118 316.995 22.7216C318.209 22.7118 319.414 22.9613 320.534 23.4505C321.64 23.9446 322.638 24.6735 323.456 25.5883C323.522 25.6519 323.607 25.6861 323.696 25.6861C323.791 25.6861 323.88 25.6421 323.936 25.5638L324.901 24.5707C324.958 24.512 324.995 24.4338 325 24.3457C325 24.2625 324.972 24.1843 324.925 24.1207C324.336 23.3869 323.64 22.7558 322.859 22.2519C322.002 21.6943 321.075 21.2638 320.106 20.9654C318.073 20.3441 315.913 20.3441 313.885 20.9702C312.915 21.2687 311.993 21.6991 311.136 22.2568C310.355 22.7607 309.654 23.3918 309.071 24.1256C309.024 24.1892 309 24.2674 309 24.3457C309.005 24.4289 309.042 24.512 309.099 24.5707L310.064 25.5883H310.059Z" fill="black"/>
<rect x="333.5" y="20.5" width="24" height="12" rx="3.5" stroke="black" stroke-opacity="0.4"/>
<rect x="335" y="22" width="19" height="9" rx="2" fill="black"/>
<path fill-rule="evenodd" clip-rule="evenodd" d="M359 28.374C359.863 28.152 360.5 27.3689 360.5 26.437C360.5 25.5051 359.863 24.722 359 24.5V28.374Z" fill="black" fill-opacity="0.4"/>
<mask id="path-12-inside-1_2028_14498" fill="white">
<path d="M0 59H393V119H0V59Z"/>
</mask>
<path d="M393 118H0V120H393V118Z" fill="#E1E1E5" mask="url(#path-12-inside-1_2028_14498)"/>
<path d="M35 89H21M21 89L28 96M21 89L28 82" stroke="#18181B" stroke-width="2" stroke-linecap="round" stroke-linejoin="round"/>
<path d="M82.2773 87.25H85.0898V88.793H82.2773V97.6602H80.4414V80.1602H82.2773V87.25ZM78.918 84.418H68.5469V82.8945H72.8633V80.3945H74.7188V82.8945H78.918V84.418ZM73.8008 85.707C74.6276 85.707 75.3698 85.8796 76.0273 86.2246C76.6849 86.5697 77.2025 87.0514 77.5801 87.6699C77.9577 88.2884 78.1497 88.9883 78.1562 89.7695C78.1497 90.5573 77.9577 91.2604 77.5801 91.8789C77.2025 92.4974 76.6849 92.9792 76.0273 93.3242C75.3698 93.6693 74.6276 93.8451 73.8008 93.8516C72.9674 93.8451 72.2188 93.6693 71.5547 93.3242C70.8971 92.9792 70.3796 92.4974 70.002 91.8789C69.6309 91.2604 69.4453 90.5573 69.4453 89.7695C69.4453 88.9883 69.6309 88.2884 70.002 87.6699C70.3796 87.0514 70.8971 86.5697 71.5547 86.2246C72.2188 85.8796 72.9674 85.707 73.8008 85.707ZM73.8008 87.2305C73.3125 87.2305 72.8698 87.3379 72.4727 87.5527C72.0755 87.7676 71.7663 88.0671 71.5449 88.4512C71.3236 88.8353 71.2161 89.2747 71.2227 89.7695C71.2161 90.2708 71.3236 90.7135 71.5449 91.0977C71.7663 91.4818 72.0723 91.778 72.4629 91.9863C72.86 92.1947 73.306 92.2956 73.8008 92.2891C74.2891 92.2956 74.7285 92.1947 75.1191 91.9863C75.5163 91.778 75.8255 91.4818 76.0469 91.0977C76.2682 90.7135 76.3789 90.2708 76.3789 89.7695C76.3789 89.2747 76.2682 88.8353 76.0469 88.4512C75.8255 88.0671 75.5163 87.7676 75.1191 87.5527C74.7285 87.3379 74.2891 87.2305 73.8008 87.2305ZM99.6313 85.5703H89.3188V87.582H100.002V89.0859H87.4633V84.1445H97.7367V82.3086H87.4047V80.8047H99.6313V85.5703ZM101.526 92.2305H94.4164V97.6992H92.5609V92.2305H85.5102V90.7461H101.526V92.2305ZM121.507 97.6992H119.652V87.9727H116.038V86.4492H119.652V80.1602H121.507V97.6992ZM113.148 85.082C113.148 86.0651 113.34 87.0482 113.724 88.0312C114.108 89.0143 114.645 89.8965 115.335 90.6777C116.032 91.4525 116.82 92.0352 117.698 92.4258L116.585 93.9102C115.589 93.4284 114.71 92.7122 113.948 91.7617C113.193 90.8047 112.62 89.7207 112.23 88.5098C111.833 89.7988 111.25 90.9544 110.482 91.9766C109.713 92.9922 108.831 93.7539 107.835 94.2617L106.702 92.8164C107.575 92.3997 108.356 91.7845 109.046 90.9707C109.743 90.1504 110.286 89.2259 110.677 88.1973C111.068 87.1621 111.266 86.1237 111.273 85.082V83.4414H107.405V81.918H117.034V83.4414H113.148V85.082ZM129.896 83.3828C129.896 84.125 130.062 84.8346 130.394 85.5117C130.726 86.1823 131.208 86.778 131.839 87.2988C132.471 87.8132 133.223 88.207 134.095 88.4805L133.216 89.9258C132.233 89.6133 131.38 89.1445 130.658 88.5195C129.942 87.8945 129.388 87.1589 128.998 86.3125C128.614 87.2826 128.044 88.1289 127.289 88.8516C126.533 89.5677 125.638 90.1081 124.603 90.4727L123.646 88.9883C124.538 88.6953 125.313 88.2656 125.97 87.6992C126.634 87.1263 127.142 86.4688 127.494 85.7266C127.852 84.9844 128.034 84.2096 128.041 83.4023V82.9141H124.193V81.4102H133.666V82.9141H129.896V83.3828ZM137.533 84.4961H140.072V86.0195H137.533V90.668H135.677V80.1602H137.533V84.4961ZM131.888 91.0977C133.086 91.0977 134.121 91.2279 134.994 91.4883C135.866 91.7422 136.533 92.1133 136.996 92.6016C137.458 93.0833 137.689 93.6628 137.689 94.3398C137.689 95.0234 137.455 95.6126 136.986 96.1074C136.524 96.6022 135.856 96.9798 134.984 97.2402C134.118 97.5007 133.086 97.6276 131.888 97.6211C130.677 97.6276 129.629 97.5007 128.744 97.2402C127.865 96.9798 127.188 96.6022 126.713 96.1074C126.244 95.6126 126.009 95.0234 126.009 94.3398C126.009 93.6628 126.244 93.0833 126.713 92.6016C127.188 92.1133 127.865 91.7422 128.744 91.4883C129.629 91.2279 130.677 91.0977 131.888 91.0977ZM131.888 92.5625C130.612 92.5625 129.619 92.7188 128.91 93.0312C128.207 93.3372 127.858 93.7734 127.865 94.3398C127.858 94.9193 128.207 95.3685 128.91 95.6875C129.619 96 130.612 96.1562 131.888 96.1562C133.151 96.1562 134.131 96 134.828 95.6875C135.524 95.375 135.873 94.9258 135.873 94.3398C135.873 93.7734 135.524 93.3372 134.828 93.0312C134.131 92.7188 133.151 92.5625 131.888 92.5625ZM154.301 87.25H157.113V88.793H154.301V97.6602H152.465V80.1602H154.301V87.25ZM150.941 84.418H140.57V82.8945H144.887V80.3945H146.742V82.8945H150.941V84.418ZM145.824 85.707C146.651 85.707 147.393 85.8796 148.051 86.2246C148.708 86.5697 149.226 87.0514 149.604 87.6699C149.981 88.2884 150.173 88.9883 150.18 89.7695C150.173 90.5573 149.981 91.2604 149.604 91.8789C149.226 92.4974 148.708 92.9792 148.051 93.3242C147.393 93.6693 146.651 93.8451 145.824 93.8516C144.991 93.8451 144.242 93.6693 143.578 93.3242C142.921 92.9792 142.403 92.4974 142.025 91.8789C141.654 91.2604 141.469 90.5573 141.469 89.7695C141.469 88.9883 141.654 88.2884 142.025 87.6699C142.403 87.0514 142.921 86.5697 143.578 86.2246C144.242 85.8796 144.991 85.707 145.824 85.707ZM145.824 87.2305C145.336 87.2305 144.893 87.3379 144.496 87.5527C144.099 87.7676 143.79 88.0671 143.568 88.4512C143.347 88.8353 143.24 89.2747 143.246 89.7695C143.24 90.2708 143.347 90.7135 143.568 91.0977C143.79 91.4818 144.096 91.778 144.486 91.9863C144.883 92.1947 145.329 92.2956 145.824 92.2891C146.312 92.2956 146.752 92.1947 147.143 91.9863C147.54 91.778 147.849 91.4818 148.07 91.0977C148.292 90.7135 148.402 90.2708 148.402 89.7695C148.402 89.2747 148.292 88.8353 148.07 88.4512C147.849 88.0671 147.54 87.7676 147.143 87.5527C146.752 87.3379 146.312 87.2305 145.824 87.2305ZM172.104 97.6602H170.229V80.1602H172.104V97.6602ZM166.889 82.0352C166.889 84.7435 166.241 87.1523 164.946 89.2617C163.657 91.3646 161.577 93.1029 158.705 94.4766L157.729 92.9727C160.027 91.8789 161.769 90.5475 162.954 88.9785C164.145 87.4095 164.832 85.5898 165.014 83.5195H158.569V82.0352H166.889Z" fill="#18181B"/>
<mask id="path-16-inside-2_2028_14498" fill="white">
<path d="M24 151H369V235H24V151Z"/>
</mask>
<path d="M369 233H24V237H369V233Z" fill="#838391" mask="url(#path-16-inside-2_2028_14498)"/>
<path d="M51.6562 153.438V210H41.4219V163.359H41.1094L27.9062 171.797V162.5L41.8906 153.438H51.6562ZM63.8063 210V202.656L83.8063 183.359C89.5094 177.656 92.4781 174.297 92.4781 169.531C92.4781 164.297 88.3375 160.938 82.7906 160.938C76.9313 160.938 73.1813 164.609 73.2594 170.312H63.5719C63.4938 159.609 71.5406 152.656 82.8688 152.656C94.4313 152.656 102.244 159.531 102.244 169.062C102.244 175.469 99.1188 180.625 88.025 191.094L77.9469 201.094V201.484H103.103V210H63.8063Z" fill="#C6C6CD"/>
<path d="M125.234 186.016V198.32H123.008V197.312H118.906V195.906H123.008V186.016H125.234ZM107.727 193.75C111.781 193.773 116.938 193.727 121.461 193.234L121.578 194.664C119.598 194.934 117.547 195.098 115.531 195.203V198.367H113.328V195.297C111.43 195.344 109.625 195.355 107.984 195.344L107.727 193.75ZM125.234 199.023V203.547H113.141V205.164H125.867V206.781H110.961V202.07H123.031V200.57H110.867V199.023H125.234ZM114.547 186.367C117.664 186.367 119.773 187.609 119.797 189.531C119.773 191.5 117.664 192.672 114.547 192.672C111.359 192.672 109.273 191.5 109.297 189.531C109.273 187.609 111.359 186.367 114.547 186.367ZM114.547 187.867C112.602 187.867 111.383 188.523 111.383 189.531C111.383 190.539 112.602 191.172 114.547 191.172C116.445 191.172 117.688 190.539 117.688 189.531C117.688 188.523 116.445 187.867 114.547 187.867Z" fill="#C6C6CD"/>
<path d="M300.031 198.453V190.328L324.484 152.438H337.141V190.094H344.562V198.453H337.141V209H327.453V198.453H300.031ZM310.422 190.094H327.609V164H326.984L310.422 189.703V190.094Z" fill="#18181B"/>
<path d="M354.984 186.695C358.148 186.719 360.469 188.664 360.492 191.406C360.469 194.172 358.148 196.094 354.984 196.094C351.797 196.094 349.453 194.172 349.453 191.406C349.453 188.664 351.797 186.719 354.984 186.695ZM354.984 188.57C353.039 188.547 351.609 189.695 351.633 191.406C351.609 193.141 353.039 194.289 354.984 194.289C356.906 194.289 358.336 193.141 358.336 191.406C358.336 189.695 356.906 188.547 354.984 188.57ZM366.445 185.992V196.68H364.219V185.992H366.445ZM366.445 197.641V202.938H354.867V204.953H367.148V206.734H352.711V201.273H364.242V199.422H352.641V197.641H366.445Z" fill="#18181B"/>
<path d="M36.5938 284.391H34.9219V277.25H33.3594V283.672H31.7344V270.531H33.3594V275.828H34.9219V270.266H36.5938V284.391ZM26.8281 279.344C28.2552 279.318 29.599 279.177 30.8594 278.922L31.0312 280.438C30.1354 280.599 29.2812 280.714 28.4688 280.781C27.6562 280.844 26.8385 280.875 26.0156 280.875H25.0781V271.891H26.8281V279.344ZM49.0394 275.781H51.1331V277.234H49.0394V284.359H47.305V270.266H49.0394V275.781ZM45.305 271.734C45.305 276.37 43.1644 279.74 38.8831 281.844L37.8988 280.5C39.6175 279.646 40.943 278.612 41.8753 277.398C42.8128 276.185 43.3701 274.776 43.5472 273.172H38.6644V271.734H45.305ZM66.4463 277.984H56.4463V271.5H58.1963V276.562H66.4463V277.984ZM67.8681 282.625H54.9619V281.156H67.8681V282.625ZM80.2356 280.516H78.4544V270.297H80.2356V280.516ZM80.595 284.109H70.7513V279.719H72.4856V282.703H80.595V284.109ZM72.8294 271.422C72.8242 272.479 72.7252 273.422 72.5325 274.25C72.3398 275.073 72.0169 275.836 71.5638 276.539C71.1106 277.242 70.4908 277.896 69.7044 278.5L68.5481 277.438C69.3919 276.792 70.0143 276.112 70.4153 275.398C70.8164 274.685 71.0638 273.833 71.1575 272.844H69.0169V271.422H72.8294ZM76.8763 271.422C76.871 272.557 76.7851 273.565 76.6184 274.445C76.4518 275.326 76.1471 276.159 75.7044 276.945C75.2669 277.727 74.6523 278.458 73.8606 279.141L72.6731 278.078C73.2565 277.589 73.7278 277.081 74.0872 276.555C74.4466 276.023 74.7148 275.458 74.8919 274.859C75.0742 274.26 75.1914 273.589 75.2434 272.844H73.345V271.422H76.8763ZM96.5956 273.484H98.5644V274.906H96.5956V278.203H94.8613V270.266H96.5956V273.484ZM92.6738 271.125C92.6685 272.339 92.4055 273.43 91.8847 274.398C91.3691 275.367 90.6165 276.195 89.6269 276.883C88.6425 277.565 87.4446 278.094 86.0331 278.469L85.3456 277.078C86.9602 276.661 88.231 276.06 89.1581 275.273C90.0852 274.482 90.6269 273.568 90.7831 272.531H86.0175V271.125H92.6738ZM96.5956 284.203H87.455V278.766H96.5956V284.203ZM89.1894 282.828H94.8769V280.188H89.1894V282.828ZM110.791 278.656H109.057V275.203H106.651V273.781H109.057V270.266H110.791V278.656ZM106.01 279.016C107.005 279.016 107.864 279.122 108.588 279.336C109.317 279.544 109.875 279.852 110.26 280.258C110.645 280.659 110.838 281.141 110.838 281.703C110.838 282.266 110.645 282.747 110.26 283.148C109.875 283.555 109.317 283.862 108.588 284.07C107.864 284.284 107.005 284.391 106.01 284.391C105.02 284.391 104.164 284.284 103.44 284.07C102.716 283.862 102.161 283.555 101.776 283.148C101.395 282.747 101.208 282.266 101.213 281.703C101.208 281.141 101.395 280.659 101.776 280.258C102.161 279.852 102.716 279.544 103.44 279.336C104.164 279.122 105.02 279.016 106.01 279.016ZM106.01 280.344C105.02 280.344 104.26 280.461 103.729 280.695C103.198 280.924 102.932 281.26 102.932 281.703C102.932 282.141 103.198 282.474 103.729 282.703C104.26 282.932 105.02 283.047 106.01 283.047C107 283.047 107.763 282.932 108.299 282.703C108.836 282.474 109.104 282.141 109.104 281.703C109.104 281.26 108.836 280.924 108.299 280.695C107.763 280.461 107 280.344 106.01 280.344ZM104.151 272.688C104.151 273.271 104.278 273.839 104.533 274.391C104.789 274.938 105.166 275.43 105.666 275.867C106.166 276.299 106.77 276.635 107.479 276.875L106.604 278.25C105.838 277.99 105.174 277.607 104.612 277.102C104.054 276.591 103.617 275.997 103.299 275.32C102.981 276.086 102.528 276.755 101.94 277.328C101.351 277.896 100.645 278.328 99.8225 278.625L98.9163 277.25C99.6506 277 100.278 276.638 100.799 276.164C101.32 275.685 101.713 275.146 101.979 274.547C102.25 273.948 102.385 273.333 102.385 272.703V272.594H99.4475V271.188H107.073V272.594H104.151V272.688ZM118.893 270.484C119.966 270.484 120.88 270.578 121.635 270.766C122.396 270.953 122.976 271.229 123.378 271.594C123.779 271.953 123.982 272.391 123.987 272.906C123.982 273.688 123.536 274.286 122.651 274.703C121.766 275.12 120.513 275.333 118.893 275.344C117.268 275.333 116.013 275.12 115.128 274.703C114.242 274.286 113.799 273.688 113.799 272.906C113.799 272.391 114 271.953 114.401 271.594C114.802 271.229 115.383 270.953 116.143 270.766C116.904 270.578 117.82 270.484 118.893 270.484ZM118.893 271.766C117.82 271.766 117.005 271.865 116.448 272.062C115.891 272.255 115.617 272.536 115.628 272.906C115.622 273.292 115.893 273.578 116.44 273.766C116.987 273.953 117.805 274.047 118.893 274.047C119.997 274.047 120.823 273.953 121.37 273.766C121.917 273.578 122.19 273.292 122.19 272.906C122.19 272.536 121.911 272.255 121.354 272.062C120.797 271.865 119.976 271.766 118.893 271.766ZM125.346 277.484H112.471V276.094H125.346V277.484ZM123.737 281.891H115.706V282.938H124.128V284.266H114.003V280.656H122.034V279.719H113.987V278.438H123.737V281.891ZM134.597 272.766C134.597 273.401 134.722 274.013 134.972 274.602C135.227 275.19 135.602 275.714 136.097 276.172C136.597 276.625 137.201 276.974 137.909 277.219L136.956 278.578C136.206 278.292 135.558 277.885 135.011 277.359C134.469 276.833 134.047 276.219 133.745 275.516C133.433 276.307 132.988 276.995 132.409 277.578C131.836 278.161 131.144 278.604 130.331 278.906L129.409 277.531C130.144 277.281 130.766 276.914 131.277 276.43C131.792 275.945 132.18 275.385 132.441 274.75C132.706 274.115 132.842 273.448 132.847 272.75V271.141H134.597V272.766ZM141.284 280.766H139.55V274.812H136.738V273.391H139.55V270.281H141.284V280.766ZM141.597 284.109H131.972V279.625H133.738V282.703H141.597V284.109ZM149.043 272.641H145.168V274.016H148.902V275.344H145.168V276.828C146.079 276.818 146.858 276.789 147.503 276.742C148.154 276.695 148.808 276.609 149.464 276.484L149.652 277.891C148.876 278.036 148.11 278.133 147.355 278.18C146.605 278.227 145.631 278.25 144.433 278.25H143.496V271.25H149.043V272.641ZM155.043 278.875H153.386V275.203H151.918V278.766H150.293V270.547H151.918V273.812H153.386V270.281H155.043V278.875ZM155.043 284.391H153.308V280.906H145.371V279.5H155.043V284.391ZM163.363 273.906H156.441V272.516H159.066V270.672H160.785V272.516H163.363V273.906ZM159.926 274.656C160.519 274.656 161.048 274.797 161.512 275.078C161.98 275.354 162.345 275.742 162.605 276.242C162.871 276.742 163.004 277.307 163.004 277.938C163.004 278.578 162.871 279.151 162.605 279.656C162.345 280.161 161.98 280.557 161.512 280.844C161.048 281.125 160.519 281.266 159.926 281.266C159.337 281.266 158.808 281.125 158.34 280.844C157.871 280.557 157.504 280.161 157.238 279.656C156.973 279.151 156.842 278.578 156.848 277.938C156.842 277.307 156.973 276.742 157.238 276.242C157.504 275.742 157.871 275.354 158.34 275.078C158.808 274.797 159.337 274.656 159.926 274.656ZM159.926 276.094C159.618 276.094 159.348 276.172 159.113 276.328C158.879 276.479 158.696 276.695 158.566 276.977C158.436 277.253 158.374 277.573 158.379 277.938C158.374 278.312 158.436 278.641 158.566 278.922C158.696 279.203 158.879 279.419 159.113 279.57C159.348 279.716 159.618 279.786 159.926 279.781C160.228 279.786 160.496 279.716 160.73 279.57C160.965 279.419 161.147 279.203 161.277 278.922C161.407 278.641 161.473 278.312 161.473 277.938C161.473 277.573 161.407 277.253 161.277 276.977C161.147 276.695 160.965 276.479 160.73 276.328C160.496 276.172 160.228 276.094 159.926 276.094ZM168.613 284.391H166.957V277.484H165.582V283.75H163.957V270.562H165.582V276.078H166.957V270.266H168.613V284.391ZM176.848 272.328H182.942V270.797H184.661V276.531H180.754V277.828H186.333V279.234H173.458V277.828H179.004V276.531H175.129V270.797H176.848V272.328ZM182.942 275.141V273.672H176.848V275.141H182.942ZM184.879 284.109H175.051V280.141H176.786V282.703H184.879V284.109ZM198.028 275.625H200.2V277.047H198.028V284.406H196.294V270.266H198.028V275.625ZM194.153 273.016H189.278V279.5C190.419 279.5 191.447 279.466 192.364 279.398C193.281 279.331 194.21 279.214 195.153 279.047L195.356 280.516C194.335 280.693 193.325 280.81 192.325 280.867C191.33 280.924 190.127 280.953 188.716 280.953H187.544V271.609H194.153V273.016ZM207.724 272.578H210.568V270.281H212.302V280.562H210.568V277H207.724V278.219H201.083V271.453H207.724V272.578ZM202.818 276.859H206.005V272.828H202.818V276.859ZM212.614 284.109H202.989V279.609H204.755V282.703H212.614V284.109ZM210.568 275.609V274H207.724V275.609H210.568ZM216.372 279.531C216.378 278.891 216.44 278.372 216.56 277.977C216.68 277.581 216.846 277.266 217.06 277.031C217.279 276.792 217.57 276.557 217.935 276.328C218.305 276.094 218.591 275.839 218.794 275.562C219.003 275.281 219.107 274.958 219.107 274.594C219.107 274.307 219.039 274.057 218.904 273.844C218.768 273.625 218.583 273.456 218.349 273.336C218.12 273.216 217.862 273.156 217.576 273.156C217.305 273.156 217.052 273.214 216.818 273.328C216.583 273.443 216.391 273.617 216.24 273.852C216.094 274.086 216.013 274.37 215.997 274.703H214.044C214.06 274.026 214.227 273.451 214.544 272.977C214.862 272.497 215.287 272.138 215.818 271.898C216.349 271.654 216.94 271.531 217.591 271.531C218.289 271.531 218.906 271.656 219.443 271.906C219.984 272.151 220.404 272.503 220.701 272.961C221.003 273.419 221.154 273.953 221.154 274.562C221.154 275.167 221.011 275.688 220.724 276.125C220.443 276.562 220.034 276.943 219.497 277.266C219.185 277.453 218.935 277.648 218.747 277.852C218.565 278.049 218.43 278.281 218.341 278.547C218.253 278.812 218.206 279.141 218.201 279.531V279.672H216.372V279.531ZM217.341 283.125C217.122 283.125 216.919 283.07 216.732 282.961C216.544 282.852 216.396 282.703 216.287 282.516C216.177 282.328 216.122 282.125 216.122 281.906C216.122 281.693 216.177 281.495 216.287 281.312C216.396 281.125 216.544 280.977 216.732 280.867C216.919 280.758 217.122 280.703 217.341 280.703C217.55 280.703 217.745 280.758 217.927 280.867C218.115 280.977 218.263 281.125 218.372 281.312C218.487 281.495 218.544 281.693 218.544 281.906C218.544 282.125 218.487 282.328 218.372 282.516C218.263 282.703 218.115 282.852 217.927 282.961C217.745 283.07 217.55 283.125 217.341 283.125Z" fill="#4D4D56"/>
<rect x="24.5" y="303.5" width="344" height="223" rx="15.5" stroke="#E1E1E5"/>
<rect x="48.5" y="323.5" width="59" height="59" rx="29.5" fill="#90E0D0"/>
<rect x="48.5" y="323.5" width="59" height="59" rx="29.5" stroke="black"/>
<path fill-rule="evenodd" clip-rule="evenodd" d="M65.4576 347.891C65.4577 347.891 65.4578 347.89 64.4788 347.686C63.4998 347.482 63.4999 347.482 63.5 347.481L63.5002 347.48L63.5007 347.478L63.502 347.472L63.5054 347.456C63.5082 347.444 63.5118 347.428 63.5164 347.41C63.5255 347.372 63.5384 347.322 63.5559 347.26C63.5906 347.137 63.6435 346.969 63.7195 346.77C63.8705 346.374 64.1189 345.843 64.5103 345.306C65.3114 344.207 66.7087 343.104 68.9564 343.104C71.2041 343.104 72.6014 344.207 73.4025 345.306C73.7939 345.843 74.0422 346.374 74.1933 346.77C74.2693 346.969 74.3222 347.137 74.3569 347.26C74.3743 347.322 74.3873 347.372 74.3964 347.41C74.401 347.428 74.4046 347.444 74.4073 347.456L74.4108 347.472L74.412 347.478L74.4125 347.48L74.4128 347.481C74.4129 347.482 74.413 347.482 73.434 347.686C72.455 347.89 72.4551 347.891 72.4552 347.891L72.4554 347.892L72.4557 347.893L72.4561 347.895L72.453 347.882C72.4494 347.867 72.4427 347.841 72.4324 347.804C72.4117 347.731 72.3771 347.62 72.3249 347.483C72.2194 347.207 72.048 346.843 71.7864 346.484C71.2816 345.792 70.44 345.104 68.9564 345.104C67.4727 345.104 66.6312 345.792 66.1263 346.484C65.8648 346.843 65.6934 347.207 65.5879 347.483C65.5356 347.62 65.501 347.731 65.4804 347.804C65.4701 347.841 65.4634 347.867 65.4598 347.882L65.4566 347.895C65.4565 347.896 65.4565 347.896 65.4567 347.895L65.4571 347.893L65.4574 347.892L65.4576 347.891ZM72.4561 347.895L72.4562 347.895L72.4563 347.896C72.4563 347.896 72.4562 347.896 72.4561 347.895Z" fill="#18181B"/>
<path fill-rule="evenodd" clip-rule="evenodd" d="M83.3706 347.891C83.3707 347.891 83.3708 347.89 82.3919 347.686C81.4129 347.482 81.413 347.482 81.4131 347.481L81.4133 347.48L81.4138 347.478L81.4151 347.472L81.4185 347.456C81.4213 347.444 81.4249 347.428 81.4294 347.41C81.4386 347.372 81.4515 347.322 81.4689 347.26C81.5037 347.137 81.5566 346.969 81.6326 346.77C81.7836 346.374 82.032 345.843 82.4234 345.306C83.2245 344.207 84.6218 343.104 86.8695 343.104C89.1172 343.104 90.5145 344.207 91.3155 345.306C91.707 345.843 91.9553 346.374 92.1064 346.77C92.1824 346.969 92.2353 347.137 92.27 347.26C92.2874 347.322 92.3004 347.372 92.3095 347.41C92.3141 347.428 92.3177 347.444 92.3204 347.456L92.3239 347.472L92.3251 347.478L92.3256 347.48L92.3259 347.481C92.326 347.482 92.3261 347.482 91.3471 347.686C90.3681 347.89 90.3682 347.891 90.3683 347.891L90.3685 347.892L90.3688 347.893L90.3692 347.895L90.3661 347.882C90.3625 347.867 90.3557 347.841 90.3455 347.804C90.3248 347.731 90.2902 347.62 90.238 347.483C90.1325 347.207 89.9611 346.843 89.6995 346.484C89.1946 345.792 88.3531 345.104 86.8695 345.104C85.3858 345.104 84.5443 345.792 84.0394 346.484C83.7779 346.843 83.6064 347.207 83.5009 347.483C83.4487 347.62 83.4141 347.731 83.3935 347.804C83.3832 347.841 83.3765 347.867 83.3729 347.882L83.3697 347.895C83.3695 347.896 83.3696 347.896 83.3698 347.895L83.3702 347.893L83.3705 347.892L83.3706 347.891Z" fill="#18181B"/>
<path fill-rule="evenodd" clip-rule="evenodd" d="M67.5 358.67C67.4998 358.669 67.4997 358.669 67.8756 358.335C68.2515 358.001 68.2514 358 68.2513 358L68.2511 358L68.2521 358.001L68.258 358.008C68.2637 358.015 68.273 358.027 68.2858 358.042C68.3114 358.072 68.351 358.118 68.4045 358.178C68.5114 358.297 68.6734 358.47 68.8884 358.679C69.3188 359.098 69.96 359.659 70.796 360.22C72.468 361.343 74.9086 362.462 78 362.462C81.0914 362.462 83.532 361.343 85.204 360.22C86.04 359.659 86.6812 359.098 87.1116 358.679C87.3266 358.47 87.4886 358.297 87.5955 358.178C87.649 358.118 87.6886 358.072 87.7142 358.042C87.727 358.027 87.7363 358.015 87.742 358.008L87.7479 358.001L87.7487 358C87.7486 358 87.7485 358.001 88.1244 358.335C88.5003 358.669 88.5002 358.669 88.5 358.67L88.4996 358.67L88.4986 358.671L88.4955 358.675L88.4851 358.688C88.4764 358.698 88.4641 358.713 88.4482 358.732C88.4163 358.77 88.37 358.824 88.3095 358.891C88.1885 359.026 88.0106 359.216 87.7777 359.442C87.3122 359.895 86.6251 360.496 85.7319 361.096C83.9455 362.296 81.3239 363.5 78 363.5C74.6761 363.5 72.0545 362.296 70.2681 361.096C69.3749 360.496 68.6878 359.895 68.2223 359.442C67.9894 359.216 67.8115 359.026 67.6905 358.891C67.63 358.824 67.5837 358.77 67.5518 358.732C67.5359 358.713 67.5236 358.698 67.5149 358.688L67.5046 358.675L67.5014 358.671L67.5004 358.67L67.5 358.67ZM68.2511 358C68.2511 358 68.2511 358 68.2511 358L68.2511 358Z" fill="#18181B"/>
<rect x="127" y="323" width="60" height="60" rx="30" fill="#FFEC82"/>
<circle cx="148" cy="347" r="3" fill="#18181B"/>
<path d="M169 347C169 348.657 167.657 350 166 350C164.343 350 163 348.657 163 347C163 345.343 164.343 344 166 344C167.657 344 169 345.343 169 347Z" fill="#18181B"/>
<path fill-rule="evenodd" clip-rule="evenodd" d="M147 361L167 361V362L147 362V361Z" fill="#18181B"/>
<rect x="206" y="323" width="60" height="60" rx="30" fill="#FF8C82"/>
<circle cx="244.5" cy="347" r="3" fill="#18181B"/>
<path fill-rule="evenodd" clip-rule="evenodd" d="M247.082 341.333L240.718 347.696L240 347L246.364 340.636L247.082 341.333Z" fill="#18181B"/>
<circle cx="3" cy="3" r="3" transform="matrix(-1 0 0 1 230.5 344)" fill="#18181B"/>
<path fill-rule="evenodd" clip-rule="evenodd" d="M224.918 341.333L231.282 347.696L232 347L225.636 340.636L224.918 341.333Z" fill="#18181B"/>
<path fill-rule="evenodd" clip-rule="evenodd" d="M249.5 362.358C249.5 362.359 249.5 362.359 249.122 362.679C248.744 363 248.744 363 248.744 363L248.742 362.998L248.734 362.99C248.727 362.982 248.714 362.969 248.697 362.951C248.663 362.917 248.611 362.864 248.541 362.797C248.401 362.662 248.189 362.467 247.908 362.231C247.346 361.759 246.509 361.127 245.417 360.495C243.235 359.23 240.044 357.967 236 357.967C231.956 357.967 228.765 359.23 226.583 360.495C225.491 361.127 224.654 361.759 224.092 362.231C223.811 362.467 223.599 362.662 223.459 362.797C223.389 362.864 223.337 362.917 223.303 362.951C223.286 362.969 223.273 362.982 223.266 362.99L223.258 362.998L223.256 363C223.256 363 223.256 363 222.878 362.679C222.5 362.359 222.5 362.359 222.5 362.358L222.502 362.357L222.505 362.352L222.518 362.339C222.529 362.327 222.545 362.311 222.565 362.29C222.606 362.249 222.665 362.19 222.743 362.115C222.898 361.966 223.126 361.755 223.426 361.504C224.025 361.001 224.909 360.334 226.059 359.668C228.359 358.335 231.729 357 236 357C240.271 357 243.641 358.335 245.941 359.668C247.091 360.334 247.975 361.001 248.574 361.504C248.874 361.755 249.102 361.966 249.257 362.115C249.335 362.19 249.394 362.249 249.435 362.29C249.455 362.311 249.471 362.327 249.482 362.339L249.495 362.352L249.498 362.357L249.5 362.358ZM248.744 363C248.744 363 248.744 363 248.744 363V363Z" fill="#18181B"/>
<rect x="285" y="323" width="60" height="60" rx="30" fill="#82AEFF"/>
<path d="M332 356.615C332 358.485 330.433 360 328.5 360C326.567 360 325 358.485 325 356.615C325 354.746 328.5 349 328.5 349C328.5 349 332 354.746 332 356.615Z" fill="white"/>
<path fill-rule="evenodd" clip-rule="evenodd" d="M325.5 362.391C325.5 362.392 325.5 362.392 325.124 362.696C324.749 363 324.749 363 324.749 363L324.749 363L324.748 362.999L324.742 362.992C324.736 362.986 324.727 362.976 324.714 362.962C324.689 362.934 324.649 362.893 324.596 362.838C324.489 362.73 324.327 362.573 324.112 362.383C323.681 362.002 323.04 361.492 322.204 360.982C320.532 359.96 318.091 358.943 315 358.943C311.909 358.943 309.468 359.96 307.796 360.982C306.96 361.492 306.319 362.002 305.888 362.383C305.673 362.573 305.511 362.73 305.404 362.838C305.351 362.893 305.311 362.934 305.286 362.962C305.273 362.976 305.264 362.986 305.258 362.992L305.252 362.999L305.251 363C305.251 363 305.251 363 304.876 362.696C304.5 362.392 304.5 362.392 304.5 362.391L304.5 362.391L304.501 362.39L304.505 362.386L304.515 362.375C304.524 362.365 304.536 362.352 304.552 362.334C304.584 362.3 304.63 362.251 304.691 362.19C304.812 362.067 304.989 361.895 305.222 361.689C305.688 361.277 306.375 360.731 307.268 360.186C309.054 359.095 311.676 358 315 358C318.324 358 320.946 359.095 322.732 360.186C323.625 360.731 324.312 361.277 324.778 361.689C325.011 361.895 325.188 362.067 325.309 362.19C325.37 362.251 325.416 362.3 325.448 362.334C325.464 362.352 325.476 362.365 325.485 362.375L325.495 362.386L325.499 362.39L325.5 362.391L325.5 362.391ZM324.749 363C324.749 363 324.749 363 324.749 363L324.749 363Z" fill="#18181B"/>
<circle cx="306" cy="347" r="3" fill="#18181B"/>
<path d="M327 347C327 348.657 325.657 350 324 350C322.343 350 321 348.657 321 347C321 345.343 322.343 344 324 344C325.657 344 327 345.343 327 347Z" fill="#18181B"/>
<rect x="48" y="408" width="14" height="14" rx="3" fill="#2E77FF"/>
<path d="M58.6161 412.75L54 417.366L51.5 414.866" stroke="white" stroke-width="1.5" stroke-linecap="round" stroke-linejoin="round"/>
<path d="M77.1992 409.578V416.141H76.4961V413.094H74.9258V415.766H74.2344V409.777H74.9258V412.484H76.4961V409.578H77.1992ZM73.7773 410.867V411.488H68.3984V410.867H70.7305V409.648H71.4688V410.867H73.7773ZM71.0938 412.086C72.4062 412.098 73.2969 412.777 73.3086 413.855C73.2969 414.922 72.4062 415.602 71.0938 415.602C69.7812 415.602 68.8789 414.922 68.8906 413.855C68.8789 412.777 69.7812 412.098 71.0938 412.086ZM71.0938 412.66C70.1797 412.66 69.5469 413.152 69.5469 413.855C69.5469 414.547 70.1797 415.027 71.0938 415.027C72.0078 415.027 72.6289 414.547 72.6289 413.855C72.6289 413.152 72.0078 412.66 71.0938 412.66ZM73.8242 416.34C75.9688 416.34 77.2578 416.984 77.2578 418.121C77.2578 419.246 75.9688 419.879 73.8242 419.879C71.6562 419.879 70.3789 419.246 70.3789 418.121C70.3789 416.984 71.6562 416.34 73.8242 416.34ZM73.8242 416.938C72.1484 416.926 71.1055 417.371 71.1172 418.121C71.1055 418.848 72.1484 419.293 73.8242 419.293C75.4883 419.293 76.5195 418.848 76.5312 418.121C76.5195 417.371 75.4883 416.926 73.8242 416.938ZM88.01 414.992V415.613H78.5881V414.992H82.9358V413.633H79.8538V409.812H80.592V411.09H86.0295V409.812H86.7678V413.633H83.6741V414.992H88.01ZM86.8264 416.727V419.914H86.0881V417.348H79.6311V416.727H86.8264ZM80.592 413.023H86.0295V411.676H80.592V413.023Z" fill="#303036"/>
<rect x="48.5" y="436.5" width="13" height="13" rx="2.5" fill="white"/>
<rect x="48.5" y="436.5" width="13" height="13" rx="2.5" stroke="#A6A6B0"/>
<path d="M76.9766 437.578V442.945H76.2383V440.215H73.8242V439.594H76.2383V437.578H76.9766ZM76.9766 443.508V445.863H71.082V447.152H77.3984V447.762H70.3672V445.277H76.25V444.117H70.332V443.508H76.9766ZM71.8555 438.949C71.8555 440.355 73.0391 441.609 74.5039 442.102L74.0938 442.688C72.9512 442.266 71.9727 441.41 71.5273 440.309C71.0879 441.551 70.1035 442.494 68.8789 442.957L68.4688 442.359C69.9688 441.832 71.1406 440.52 71.1523 438.949V437.895H71.8555V438.949ZM82.6545 438.762V442.207H79.678V444.691C80.926 444.691 82.1096 444.65 83.592 444.387L83.6389 445.008C82.1272 445.277 80.9319 445.312 79.6311 445.324H78.9514V441.598H81.9397V439.395H78.928V438.762H82.6545ZM87.3889 437.578V447.914H86.6741V437.578H87.3889ZM85.2795 437.848V447.352H84.5764V441.973H83.1819V441.363H84.5764V437.848H85.2795ZM97.063 440.801V441.422H90.0317V437.953H90.7583V440.801H97.063ZM98.1645 442.922V443.531H88.7075V442.922H98.1645ZM97.1216 447.023V447.656H89.9848V444.656H90.7114V447.023H97.1216Z" fill="#303036"/>
<rect x="48.5" y="464.5" width="13" height="13" rx="2.5" fill="white"/>
<rect x="48.5" y="464.5" width="13" height="13" rx="2.5" stroke="#A6A6B0"/>
<path d="M77.9023 471.508V472.129H75.3242V475.914H74.5859V472.129H71.75V475.914H70.9883V472.129H68.4453V471.508H77.9023ZM73.1562 466.012C75.3125 466.012 76.7539 466.879 76.7539 468.25C76.7539 469.609 75.3125 470.465 73.1562 470.465C71 470.465 69.5586 469.609 69.5586 468.25C69.5586 466.879 71 466.012 73.1562 466.012ZM73.1562 466.621C71.4688 466.621 70.3086 467.277 70.3086 468.25C70.3086 469.223 71.4688 469.855 73.1562 469.855C74.832 469.855 76.0039 469.223 76.0039 468.25C76.0039 467.277 74.832 466.621 73.1562 466.621ZM83.3577 466.703V467.441C83.3459 468.379 83.3459 469.621 82.9944 471.402L82.3147 471.332C82.467 470.576 82.5549 469.914 82.6077 469.328L78.9163 469.633L78.8108 469.023L82.6428 468.777C82.6663 468.268 82.6663 467.828 82.6663 467.441V467.324H79.01V466.703H83.3577ZM81.1077 470.406V472.738C82.0686 472.703 83.0588 472.639 83.885 472.527L83.9202 473.09C82.2209 473.383 79.9944 473.43 78.5881 473.43L78.4709 472.785C79.0217 472.785 79.6955 472.779 80.4163 472.762V470.406H81.1077ZM87.3303 465.578V475.914H86.6155V470.652H85.1741V475.34H84.4709V465.824H85.1741V470.02H86.6155V465.578H87.3303ZM96.77 465.578V468.391H98.3638V469.035H96.77V471.801H96.0317V465.578H96.77ZM96.77 472.434V475.762H90.313V472.434H96.77ZM91.0278 473.031V475.152H96.0317V473.031H91.0278ZM94.9184 466.727V467.348H88.7544V466.727H91.4731V465.484H92.1997V466.727H94.9184ZM91.8364 467.934C93.313 467.934 94.2973 468.66 94.2973 469.773C94.2973 470.898 93.313 471.602 91.8364 471.602C90.3364 471.602 89.3638 470.898 89.3638 469.773C89.3638 468.66 90.3364 467.934 91.8364 467.934ZM91.8364 468.52C90.77 468.52 90.0552 469.035 90.0669 469.773C90.0552 470.523 90.77 471.016 91.8364 471.027C92.8911 471.016 93.5942 470.523 93.6059 469.773C93.5942 469.035 92.8911 468.52 91.8364 468.52Z" fill="#303036"/>
<rect x="48.5" y="492.5" width="13" height="13" rx="2.5" fill="white"/>
<rect x="48.5" y="492.5" width="13" height="13" rx="2.5" stroke="#A6A6B0"/>
<path d="M77.8789 499.508V500.129H73.5898V501.781H72.8633V500.129H68.457V499.508H77.8789ZM76.8477 503.047V503.668H69.6875V501.066H70.4258V503.047H76.8477ZM77.3164 494.586V495.184H68.9609V494.586H72.8047V493.426H73.5312V494.586H77.3164ZM73.1562 495.676C75.2539 495.676 76.4727 496.227 76.4727 497.258C76.4727 498.266 75.2539 498.828 73.1562 498.816C71.0586 498.828 69.8398 498.266 69.8398 497.258C69.8398 496.227 71.0586 495.676 73.1562 495.676ZM73.1562 496.238C71.5391 496.238 70.5781 496.602 70.5898 497.258C70.5781 497.891 71.5391 498.254 73.1562 498.254C74.7734 498.254 75.7344 497.891 75.7344 497.258C75.7344 496.602 74.7734 496.238 73.1562 496.238ZM88.01 499.508V500.129H83.7209V501.781H82.9944V500.129H78.5881V499.508H88.01ZM86.9788 503.047V503.668H79.8186V501.066H80.5569V503.047H86.9788ZM87.4475 494.586V495.184H79.092V494.586H82.9358V493.426H83.6623V494.586H87.4475ZM83.2873 495.676C85.385 495.676 86.6038 496.227 86.6038 497.258C86.6038 498.266 85.385 498.828 83.2873 498.816C81.1897 498.828 79.9709 498.266 79.9709 497.258C79.9709 496.227 81.1897 495.676 83.2873 495.676ZM83.2873 496.238C81.6702 496.238 80.7092 496.602 80.7209 497.258C80.7092 497.891 81.6702 498.254 83.2873 498.254C84.9045 498.254 85.8655 497.891 85.8655 497.258C85.8655 496.602 84.9045 496.238 83.2873 496.238ZM96.77 493.578V496.391H98.3638V497.035H96.77V499.801H96.0317V493.578H96.77ZM96.77 500.434V503.762H90.313V500.434H96.77ZM91.0278 501.031V503.152H96.0317V501.031H91.0278ZM94.9184 494.727V495.348H88.7544V494.727H91.4731V493.484H92.1997V494.727H94.9184ZM91.8364 495.934C93.313 495.934 94.2973 496.66 94.2973 497.773C94.2973 498.898 93.313 499.602 91.8364 499.602C90.3364 499.602 89.3638 498.898 89.3638 497.773C89.3638 496.66 90.3364 495.934 91.8364 495.934ZM91.8364 496.52C90.77 496.52 90.0552 497.035 90.0669 497.773C90.0552 498.523 90.77 499.016 91.8364 499.027C92.8911 499.016 93.5942 498.523 93.6059 497.773C93.5942 497.035 92.8911 496.52 91.8364 496.52Z" fill="#303036"/>
<rect x="128.5" y="408.5" width="13" height="13" rx="2.5" fill="white"/>
<rect x="128.5" y="408.5" width="13" height="13" rx="2.5" stroke="#A6A6B0"/>
<path d="M157.926 417.922V418.555H148.457V417.922H152.793V415.59H149.605V410.328H150.355V412.273H156.004V410.328H156.73V415.59H153.531V417.922H157.926ZM150.355 414.969H156.004V412.895H150.355V414.969ZM168.01 415.109V415.719H158.576V415.109H162.924V413.949H159.854V409.883H166.815V410.504H160.604V411.605H166.522V412.18H160.604V413.352H166.862V413.949H163.662V415.109H168.01ZM163.299 416.598C165.561 416.598 166.838 417.172 166.838 418.238C166.838 419.316 165.561 419.879 163.299 419.879C161.014 419.879 159.737 419.316 159.737 418.238C159.737 417.172 161.014 416.598 163.299 416.598ZM163.299 417.172C161.518 417.172 160.475 417.57 160.487 418.238C160.475 418.93 161.518 419.305 163.299 419.293C165.057 419.305 166.1 418.93 166.1 418.238C166.1 417.57 165.057 417.172 163.299 417.172Z" fill="#303036"/>
<rect x="128.5" y="436.5" width="13" height="13" rx="2.5" fill="white"/>
<rect x="128.5" y="436.5" width="13" height="13" rx="2.5" stroke="#A6A6B0"/>
<path d="M151.844 438.27C153.473 438.27 154.598 439.23 154.609 440.66C154.598 441.979 153.637 442.893 152.207 443.016V444.902C153.279 444.855 154.381 444.768 155.418 444.609L155.477 445.16C153.086 445.594 150.508 445.605 148.633 445.605L148.516 444.973C149.389 444.973 150.402 444.973 151.469 444.938V443.016C150.051 442.887 149.078 441.979 149.078 440.66C149.078 439.23 150.227 438.27 151.844 438.27ZM151.844 438.926C150.66 438.926 149.793 439.641 149.805 440.66C149.793 441.668 150.66 442.406 151.844 442.395C153.027 442.406 153.883 441.668 153.883 440.66C153.883 439.641 153.027 438.926 151.844 438.926ZM156.871 437.578V447.926H156.133V437.578H156.871ZM168.057 445.957V446.59H158.588V445.957H162.924V443.871H159.807V440.777H166.1V438.996H159.772V438.375H166.826V441.398H160.533V443.25H167.073V443.871H163.662V445.957H168.057ZM178.165 442.898V443.531H173.887V445.746H173.137V443.531H168.708V442.898H178.165ZM177.11 447.023V447.668H169.961V444.668H170.688V447.023H177.11ZM173.418 437.859C175.622 437.859 177.04 438.645 177.04 439.922C177.04 441.188 175.622 441.961 173.418 441.961C171.227 441.961 169.797 441.188 169.809 439.922C169.797 438.645 171.227 437.859 173.418 437.859ZM173.418 438.48C171.731 438.48 170.583 439.043 170.583 439.922C170.583 440.777 171.731 441.34 173.418 441.34C175.118 441.34 176.266 440.777 176.266 439.922C176.266 439.043 175.118 438.48 173.418 438.48Z" fill="#303036"/>
<rect x="128.5" y="464.5" width="13" height="13" rx="2.5" fill="white"/>
<rect x="128.5" y="464.5" width="13" height="13" rx="2.5" stroke="#A6A6B0"/>
<path d="M156.566 465.566V469.703H158.172V470.348H156.566V475.914H155.828V465.566H156.566ZM151.422 466.68V467.301H149.535V472.504C150.045 472.498 150.76 472.445 151.539 472.27L151.621 472.902C150.602 473.125 149.781 473.137 149.23 473.137H148.797V466.68H151.422ZM154.773 466.68V467.301H152.758V472.516C153.607 472.51 154.34 472.457 155.172 472.246L155.254 472.879C154.281 473.113 153.496 473.137 152.5 473.137H152.031V466.68H154.773ZM168.033 471.098V471.719H163.721V473.852H162.994V471.719H158.576V471.098H168.033ZM166.979 475.047V475.668H159.819V472.855H160.557V475.047H166.979ZM160.592 465.906V467.312H166.03V465.906H166.768V469.996H159.854V465.906H160.592ZM160.592 469.375H166.03V467.898H160.592V469.375ZM176.77 465.578V469.07H178.364V469.703H176.77V473.336H176.032V465.578H176.77ZM174.918 466.902V467.523H168.754V466.902H171.473V465.59H172.2V466.902H174.918ZM171.836 468.156C173.301 468.156 174.297 468.906 174.297 470.066C174.297 471.227 173.301 471.965 171.836 471.965C170.348 471.965 169.364 471.227 169.364 470.066C169.364 468.906 170.348 468.156 171.836 468.156ZM171.836 468.754C170.77 468.754 170.055 469.281 170.067 470.066C170.055 470.84 170.77 471.367 171.836 471.355C172.891 471.367 173.594 470.84 173.606 470.066C173.594 469.281 172.891 468.754 171.836 468.754ZM177.274 475.047V475.668H170.372V472.703H171.098V475.047H177.274Z" fill="#303036"/>
<rect x="128.5" y="492.5" width="13" height="13" rx="2.5" fill="white"/>
<rect x="128.5" y="492.5" width="13" height="13" rx="2.5" stroke="#A6A6B0"/>
<path d="M157.902 499.66V500.281H153.508V503.902H152.793V500.281H148.445V499.66H157.902ZM156.648 494.164V498.148H149.699V494.164H156.648ZM150.426 494.785V497.562H155.922V494.785H150.426ZM163.475 494.211V497.012H159.772V498.781C161.864 498.781 162.877 498.746 164.155 498.512L164.225 499.145C162.924 499.355 161.881 499.391 159.76 499.391H159.045V496.426H162.737V494.832H159.022V494.211H163.475ZM167.108 493.578V499.93H166.369V497.891H164.19V497.27H166.369V495.77H164.19V495.16H166.369V493.578H167.108ZM167.108 500.516V503.938H166.369V501.137H160.194V500.516H167.108ZM176.77 493.578V497.07H178.364V497.703H176.77V501.336H176.032V493.578H176.77ZM174.918 494.902V495.523H168.754V494.902H171.473V493.59H172.2V494.902H174.918ZM171.836 496.156C173.301 496.156 174.297 496.906 174.297 498.066C174.297 499.227 173.301 499.965 171.836 499.965C170.348 499.965 169.364 499.227 169.364 498.066C169.364 496.906 170.348 496.156 171.836 496.156ZM171.836 496.754C170.77 496.754 170.055 497.281 170.067 498.066C170.055 498.84 170.77 499.367 171.836 499.355C172.891 499.367 173.594 498.84 173.606 498.066C173.594 497.281 172.891 496.754 171.836 496.754ZM177.274 503.047V503.668H170.372V500.703H171.098V503.047H177.274Z" fill="#303036"/>
<rect x="208.5" y="408.5" width="13" height="13" rx="2.5" fill="white"/>
<rect x="208.5" y="408.5" width="13" height="13" rx="2.5" stroke="#A6A6B0"/>
<path d="M237.879 415.719V416.328H228.457V415.719H232.805V414.805C230.924 414.764 229.84 414.207 229.84 413.258C229.84 412.227 231.059 411.676 233.156 411.676C235.254 411.676 236.473 412.227 236.473 413.258C236.473 414.201 235.4 414.758 233.531 414.805V415.719H237.879ZM236.836 419.047V419.668H229.699V417.066H230.449V419.047H236.836ZM237.316 410.574V411.16H228.961V410.574H232.805V409.426H233.531V410.574H237.316ZM233.156 412.238C231.539 412.238 230.578 412.602 230.59 413.258C230.578 413.891 231.539 414.254 233.156 414.254C234.773 414.254 235.734 413.891 235.734 413.258C235.734 412.602 234.773 412.238 233.156 412.238ZM246.639 409.578V412.824H248.244V413.457H246.639V417.195H245.901V409.578H246.639ZM247.155 419.047V419.668H240.311V416.609H241.061V419.047H247.155ZM239.865 414.922C241.694 414.934 243.076 414.852 244.776 414.57L244.846 415.203C243.123 415.484 241.729 415.543 239.865 415.543H239.069V412.531H242.983V410.902H239.045V410.27H243.709V413.129H239.807V414.922H239.865Z" fill="#303036"/>
<rect x="208.5" y="436.5" width="13" height="13" rx="2.5" fill="white"/>
<rect x="208.5" y="436.5" width="13" height="13" rx="2.5" stroke="#A6A6B0"/>
<path d="M237.902 443.098V443.719H233.59V445.852H232.863V443.719H228.445V443.098H237.902ZM236.848 447.047V447.668H229.688V444.855H230.426V447.047H236.848ZM230.461 437.906V439.312H235.898V437.906H236.637V441.996H229.723V437.906H230.461ZM230.461 441.375H235.898V439.898H230.461V441.375ZM246.944 442.359V442.992H243.662V445.887H248.057V446.508H238.588V445.887H242.924V442.992H239.783V438.48H240.533V442.359H246.944Z" fill="#303036"/>
<rect x="208.5" y="464.5" width="13" height="13" rx="2.5" fill="white"/>
<rect x="208.5" y="464.5" width="13" height="13" rx="2.5" stroke="#A6A6B0"/>
<path d="M236.977 465.578V471.871H236.238V470.359H233.344V469.727H236.238V468.191H233.473C232.781 469.873 231.135 471.109 228.926 471.777L228.609 471.18C231.141 470.412 232.84 468.924 233.016 467.008H229.137V466.375H233.812C233.812 466.803 233.76 467.207 233.66 467.594H236.238V465.578H236.977ZM233.613 471.965C235.711 471.965 237.035 472.691 237.035 473.91C237.035 475.141 235.711 475.867 233.613 475.867C231.504 475.867 230.18 475.141 230.18 473.91C230.18 472.691 231.504 471.965 233.613 471.965ZM233.613 472.574C231.973 472.574 230.906 473.078 230.906 473.91C230.906 474.742 231.973 475.258 233.613 475.258C235.23 475.258 236.297 474.742 236.297 473.91C236.297 473.078 235.23 472.574 233.613 472.574ZM241.506 466.211C243.065 466.211 244.166 467.195 244.178 468.625C244.166 470.066 243.065 471.039 241.506 471.039C239.948 471.039 238.823 470.066 238.823 468.625C238.823 467.195 239.948 466.211 241.506 466.211ZM241.506 466.855C240.369 466.855 239.537 467.594 239.549 468.625C239.537 469.668 240.369 470.406 241.506 470.406C242.631 470.406 243.451 469.668 243.463 468.625C243.451 467.594 242.631 466.855 241.506 466.855ZM246.639 465.578V468.332H248.233V468.953H246.639V471.672H245.901V465.578H246.639ZM246.639 472.234V475.926H245.901V472.855H239.924V472.234H246.639Z" fill="#303036"/>
<rect x="208.5" y="492.5" width="13" height="13" rx="2.5" fill="white"/>
<rect x="208.5" y="492.5" width="13" height="13" rx="2.5" stroke="#A6A6B0"/>
<path d="M237.902 499.66V500.281H233.508V503.902H232.793V500.281H228.445V499.66H237.902ZM236.648 494.164V498.148H229.699V494.164H236.648ZM230.426 494.785V497.562H235.922V494.785H230.426ZM242.127 496.496C242.127 498.336 243.475 500.223 244.905 500.891L244.459 501.5C243.293 500.885 242.227 499.578 241.776 498.066C241.319 499.66 240.264 501.049 239.104 501.688L238.623 501.102C240.053 500.375 241.377 498.383 241.389 496.496V494.504H242.127V496.496ZM247.108 493.578V503.926H246.381V497.809H243.78V497.188H246.381V493.578H247.108ZM258.165 498.898V499.531H253.887V501.746H253.137V499.531H248.708V498.898H258.165ZM257.11 503.023V503.668H249.961V500.668H250.688V503.023H257.11ZM253.418 493.859C255.622 493.859 257.04 494.645 257.04 495.922C257.04 497.188 255.622 497.961 253.418 497.961C251.227 497.961 249.797 497.188 249.809 495.922C249.797 494.645 251.227 493.859 253.418 493.859ZM253.418 494.48C251.731 494.48 250.583 495.043 250.583 495.922C250.583 496.777 251.731 497.34 253.418 497.34C255.118 497.34 256.266 496.777 256.266 495.922C256.266 495.043 255.118 494.48 253.418 494.48Z" fill="#303036"/>
<rect x="288.5" y="408.5" width="13" height="13" rx="2.5" fill="white"/>
<rect x="288.5" y="408.5" width="13" height="13" rx="2.5" stroke="#A6A6B0"/>
<path d="M316.941 409.578V414.98H316.215V409.578H316.941ZM316.953 415.52V417.887H311.047V419.164H317.352V419.785H310.332V417.301H316.227V416.129H310.297V415.52H316.953ZM312.02 410.691C312.008 412.215 313.25 413.527 314.738 414.043L314.352 414.629C313.139 414.189 312.119 413.275 311.656 412.086C311.211 413.357 310.18 414.359 308.961 414.828L308.574 414.23C310.062 413.691 311.27 412.285 311.281 410.691V409.895H312.02V410.691ZM323.791 410.375V414.746H319.069V410.375H323.791ZM319.783 410.984V414.148H323.076V410.984H319.783ZM326.639 409.578V412.25H328.233V412.871H326.639V415.719H325.901V409.578H326.639ZM323.346 416.094C325.444 416.105 326.721 416.809 326.721 417.992C326.721 419.199 325.444 419.891 323.346 419.902C321.237 419.891 319.948 419.199 319.959 417.992C319.948 416.809 321.237 416.105 323.346 416.094ZM323.346 416.715C321.717 416.715 320.674 417.207 320.686 417.992C320.674 418.801 321.717 419.281 323.346 419.293C324.975 419.281 326.006 418.801 326.006 417.992C326.006 417.207 324.975 416.715 323.346 416.715Z" fill="#303036"/>
<rect x="288.5" y="436.5" width="13" height="13" rx="2.5" fill="white"/>
<rect x="288.5" y="436.5" width="13" height="13" rx="2.5" stroke="#A6A6B0"/>
<path d="M311.211 438.398C312.723 438.398 313.789 439.793 313.789 441.973C313.789 444.152 312.723 445.547 311.211 445.547C309.699 445.547 308.645 444.152 308.656 441.973C308.645 439.793 309.699 438.398 311.211 438.398ZM311.211 439.055C310.121 439.055 309.348 440.25 309.348 441.973C309.348 443.707 310.121 444.891 311.211 444.891C312.324 444.891 313.074 443.707 313.086 441.973C313.074 440.25 312.324 439.055 311.211 439.055ZM316.414 437.578V441.785H318.195V442.418H316.414V447.914H315.676V437.578H316.414ZM320.99 439.512C320.99 440.139 321.272 441.299 322.139 442.008C322.989 441.328 323.276 440.203 323.276 439.512V438.785H322.408V438.176H325.326V438.785H323.979V439.512C323.979 440.344 324.518 441.598 325.701 442.148L325.326 442.711C324.459 442.283 323.92 441.521 323.651 440.742C323.428 441.527 322.971 442.354 322.127 442.793C321.289 442.336 320.838 441.504 320.627 440.719C320.346 441.498 319.801 442.277 318.951 442.711L318.576 442.148C319.725 441.586 320.287 440.297 320.287 439.512V438.785H318.916V438.176H321.858V438.785H320.99V439.512ZM327.155 437.578V443.074H326.416V437.578H327.155ZM327.155 443.555V445.887H321.131V447.176H327.483V447.785H320.405V445.312H326.428V444.164H320.369V443.555H327.155ZM336.77 437.578V441.07H338.364V441.703H336.77V445.336H336.032V437.578H336.77ZM334.918 438.902V439.523H328.754V438.902H331.473V437.59H332.2V438.902H334.918ZM331.836 440.156C333.301 440.156 334.297 440.906 334.297 442.066C334.297 443.227 333.301 443.965 331.836 443.965C330.348 443.965 329.364 443.227 329.364 442.066C329.364 440.906 330.348 440.156 331.836 440.156ZM331.836 440.754C330.77 440.754 330.055 441.281 330.067 442.066C330.055 442.84 330.77 443.367 331.836 443.355C332.891 443.367 333.594 442.84 333.606 442.066C333.594 441.281 332.891 440.754 331.836 440.754ZM337.274 447.047V447.668H330.372V444.703H331.098V447.047H337.274Z" fill="#303036"/>
<rect x="288.5" y="464.5" width="13" height="13" rx="2.5" fill="white"/>
<rect x="288.5" y="464.5" width="13" height="13" rx="2.5" stroke="#A6A6B0"/>
<path d="M317.914 470.828V471.449H308.457V470.828H312.805V469.152H313.531V470.828H317.914ZM313.531 466.258C313.531 467.699 315.617 468.848 317.281 469.094L316.977 469.691C315.494 469.422 313.801 468.566 313.168 467.312C312.535 468.578 310.854 469.422 309.336 469.691L309.055 469.094C310.719 468.848 312.793 467.711 312.793 466.258V465.73H313.531V466.258ZM316.695 472.551V475.914H315.957V473.16H309.5V472.551H316.695ZM321.94 467.266C321.94 468.719 323.123 470.031 324.576 470.547L324.166 471.145C323.018 470.705 322.051 469.791 321.612 468.66C321.178 469.943 320.194 470.939 318.987 471.426L318.588 470.828C320.088 470.254 321.213 468.871 321.225 467.219V466.105H321.94V467.266ZM326.639 465.578V468.355H328.233V468.988H326.639V471.918H325.901V465.578H326.639ZM323.346 472.199C325.455 472.199 326.721 472.879 326.721 474.039C326.721 475.211 325.455 475.879 323.346 475.879C321.225 475.879 319.948 475.211 319.959 474.039C319.948 472.879 321.225 472.199 323.346 472.199ZM323.346 472.809C321.717 472.809 320.674 473.277 320.686 474.039C320.674 474.812 321.717 475.281 323.346 475.293C324.975 475.281 326.006 474.812 326.006 474.039C326.006 473.277 324.975 472.809 323.346 472.809ZM336.77 465.578V469.07H338.364V469.703H336.77V473.336H336.032V465.578H336.77ZM334.918 466.902V467.523H328.754V466.902H331.473V465.59H332.2V466.902H334.918ZM331.836 468.156C333.301 468.156 334.297 468.906 334.297 470.066C334.297 471.227 333.301 471.965 331.836 471.965C330.348 471.965 329.364 471.227 329.364 470.066C329.364 468.906 330.348 468.156 331.836 468.156ZM331.836 468.754C330.77 468.754 330.055 469.281 330.067 470.066C330.055 470.84 330.77 471.367 331.836 471.355C332.891 471.367 333.594 470.84 333.606 470.066C333.594 469.281 332.891 468.754 331.836 468.754ZM337.274 475.047V475.668H330.372V472.703H331.098V475.047H337.274Z" fill="#303036"/>
<rect x="288.5" y="492.5" width="13" height="13" rx="2.5" fill="white"/>
<rect x="288.5" y="492.5" width="13" height="13" rx="2.5" stroke="#A6A6B0"/>
<path d="M311.891 495.84C311.891 497.188 313.027 498.383 314.504 498.84L314.129 499.438C312.957 499.045 311.984 498.207 311.539 497.141C311.105 498.312 310.092 499.209 308.879 499.637L308.504 499.051C309.992 498.57 311.164 497.316 311.164 495.84V495.535H308.75V494.914H311.164V493.531H311.914V494.914H314.305V495.535H311.891V495.84ZM316.508 493.578V496.402H318.102V497.047H316.508V499.871H315.77V493.578H316.508ZM316.508 500.445V503.926H315.77V501.066H309.793V500.445H316.508ZM321.987 495.441C321.975 496.836 323.1 498.055 324.576 498.535L324.225 499.121C323.03 498.717 322.069 497.867 321.635 496.777C321.19 497.984 320.182 498.91 318.951 499.344L318.565 498.758C320.065 498.242 321.248 496.977 321.248 495.453V494.926H318.823V494.305H324.377V494.926H321.987V495.441ZM326.639 493.578V496.027H328.233V496.66H326.639V499.227H325.901V493.578H326.639ZM320.897 499.742V501.125H325.901V499.742H326.639V503.762H320.158V499.742H320.897ZM320.897 503.152H325.901V501.723H320.897V503.152ZM336.77 493.578V497.07H338.364V497.703H336.77V501.336H336.032V493.578H336.77ZM334.918 494.902V495.523H328.754V494.902H331.473V493.59H332.2V494.902H334.918ZM331.836 496.156C333.301 496.156 334.297 496.906 334.297 498.066C334.297 499.227 333.301 499.965 331.836 499.965C330.348 499.965 329.364 499.227 329.364 498.066C329.364 496.906 330.348 496.156 331.836 496.156ZM331.836 496.754C330.77 496.754 330.055 497.281 330.067 498.066C330.055 498.84 330.77 499.367 331.836 499.355C332.891 499.367 333.594 498.84 333.606 498.066C333.594 497.281 332.891 496.754 331.836 496.754ZM337.274 503.047V503.668H330.372V500.703H331.098V503.047H337.274Z" fill="#303036"/>
<path d="M37.625 567.719V569.141H35.5312V576.359H33.7969V562.266H35.5312V567.719H37.625ZM26.6875 563.641V571.438C28.5703 571.406 30.5781 571.242 32.7031 570.797L32.8906 572.266C30.5156 572.734 28.25 572.875 26.1562 572.875H24.9688V563.641H26.6875ZM42.555 563.25C44.7894 563.234 46.43 564.656 46.4456 566.656C46.43 568.672 44.7894 570.078 42.555 570.078C40.3363 570.078 38.68 568.672 38.68 566.656C38.68 564.656 40.3363 563.234 42.555 563.25ZM42.555 564.75C41.3206 564.75 40.3988 565.484 40.3988 566.656C40.3988 567.844 41.3206 568.562 42.555 568.562C43.805 568.562 44.7425 567.844 44.7425 566.656C44.7425 565.484 43.805 564.75 42.555 564.75ZM49.7425 562.266V576.406H48.0081V562.266H49.7425ZM38.0394 572.031C40.5863 572.031 44.1175 572 47.1644 571.562L47.305 572.828C44.1331 573.438 40.7425 573.453 38.2581 573.453L38.0394 572.031ZM61.3838 563.062C64.415 563.062 66.6494 564.578 66.6494 566.875C66.6494 568.992 64.8291 570.406 62.2431 570.656V573.25H67.8681V574.672H54.9619V573.25H60.5244V570.656C57.9541 570.406 56.1338 568.992 56.1494 566.875C56.1338 564.578 58.3681 563.062 61.3838 563.062ZM61.3838 564.469C59.3213 564.453 57.8369 565.391 57.8525 566.875C57.8369 568.406 59.3213 569.312 61.3838 569.312C63.4775 569.312 64.9463 568.406 64.9463 566.875C64.9463 565.391 63.4775 564.453 61.3838 564.469ZM79.8763 565.312V566.703H70.1263V562.453H71.8294V565.312H79.8763ZM81.3606 567.781V569.172H68.4544V567.781H81.3606ZM79.7825 570.156V573.766H71.7513V574.859H80.2513V576.219H70.0013V572.5H78.0638V571.5H69.9856V570.156H79.7825ZM96.5175 562.266V567.891H98.6894V569.328H96.5175V576.391H94.7988V562.266H96.5175ZM93.705 564.438V565.828H85.3769V564.438H88.7206V562.469H90.455V564.438H93.705ZM89.5956 566.75C91.6269 566.75 93.1425 568.125 93.1425 570.078C93.1425 572.031 91.6269 573.391 89.5956 573.391C87.5331 573.391 86.0175 572.031 86.0331 570.078C86.0175 568.125 87.5331 566.75 89.5956 566.75ZM89.5956 568.172C88.4863 568.172 87.6894 568.922 87.6894 570.078C87.6894 571.234 88.4863 571.969 89.5956 571.953C90.6738 571.969 91.4706 571.234 91.4863 570.078C91.4706 568.922 90.6738 568.172 89.5956 568.172ZM110.354 562.75V566.766H102.244V568.172H110.666V569.562H100.494V565.453H108.573V564.156H100.463V562.75H110.354ZM111.854 570.766V572.156H106.244V576.406H104.51V572.156H98.9475V570.766H111.854ZM125.362 568.672V569.984H112.456V568.672H125.362ZM123.799 570.828V574.047H115.706V575.031H124.221V576.234H113.971V572.922H122.081V572.047H113.956V570.828H123.799ZM123.768 562.578V565.766H115.815V566.688H124.018V567.875H114.096V564.641H122.034V563.781H114.049V562.578H123.768ZM140.597 562.281V566.719H142.566V568.156H140.597V572.828H138.863V562.281H140.597ZM137.847 563.844V565.234H129.472V563.844H132.8V562.266H134.534V563.844H137.847ZM133.659 565.812C135.691 565.812 137.097 566.891 137.113 568.516C137.097 570.125 135.691 571.188 133.659 571.188C131.613 571.188 130.191 570.125 130.191 568.516C130.191 566.891 131.613 565.812 133.659 565.812ZM133.659 567.156C132.581 567.156 131.878 567.656 131.878 568.516C131.878 569.359 132.581 569.859 133.659 569.844C134.738 569.859 135.456 569.359 135.456 568.516C135.456 567.656 134.738 567.156 133.659 567.156ZM141.159 574.703V576.109H131.55V572H133.284V574.703H141.159ZM159.316 567.984V569.359H153.723V570.438H157.707V573.906H149.676V574.938H158.098V576.266H147.973V572.688H156.004V571.734H147.957V570.438H152.004V569.359H146.441V567.984H159.316ZM158.16 562.703V564.047H153.973C154.355 565.086 156.082 565.984 158.707 566.172L158.16 567.484C155.629 567.281 153.715 566.43 152.863 565.172C152.012 566.422 150.121 567.281 147.613 567.484L147.066 566.172C149.668 565.977 151.379 565.094 151.769 564.047H147.613V562.703H158.16ZM172.856 573.312V574.75H159.949V573.312H165.512V571.016H161.481V566.391H169.606V564.641H161.449V563.234H171.324V567.766H163.215V569.594H171.652V571.016H167.231V573.312H172.856ZM189.841 573.359V574.766H176.934V573.359H180.278V570.453H178.044V569.047H180.028V564.859H177.997V563.469H188.716V564.859H186.653V569.047H188.669V570.453H186.434V573.359H189.841ZM181.762 569.047H184.934V564.859H181.762V569.047ZM182.012 573.359H184.7V570.453H182.012V573.359ZM202.271 562.281V573.031H200.536V570.25H198.443V568.859H200.536V567.281H198.443V565.875H200.536V562.281H202.271ZM198.364 563.844V565.234H190.474V563.844H193.63V562.266H195.364V563.844H198.364ZM194.474 565.812C196.396 565.812 197.771 566.938 197.786 568.562C197.771 570.188 196.396 571.312 194.474 571.312C192.568 571.312 191.193 570.188 191.208 568.562C191.193 566.938 192.568 565.812 194.474 565.812ZM194.474 567.172C193.505 567.188 192.818 567.703 192.833 568.562C192.818 569.453 193.505 569.969 194.474 569.969C195.443 569.969 196.146 569.453 196.146 568.562C196.146 567.703 195.443 567.188 194.474 567.172ZM202.583 574.703V576.109H192.958V572.109H194.724V574.703H202.583ZM218.568 562.281V566.719H220.537V568.156H218.568V572.828H216.834V562.281H218.568ZM215.818 563.844V565.234H207.443V563.844H210.771V562.266H212.506V563.844H215.818ZM211.631 565.812C213.662 565.812 215.068 566.891 215.084 568.516C215.068 570.125 213.662 571.188 211.631 571.188C209.584 571.188 208.162 570.125 208.162 568.516C208.162 566.891 209.584 565.812 211.631 565.812ZM211.631 567.156C210.553 567.156 209.849 567.656 209.849 568.516C209.849 569.359 210.553 569.859 211.631 569.844C212.709 569.859 213.428 569.359 213.428 568.516C213.428 567.656 212.709 567.156 211.631 567.156ZM219.131 574.703V576.109H209.521V572H211.256V574.703H219.131ZM231.998 562.266V567.625H234.17V569.047H231.998V576.406H230.264V562.266H231.998ZM228.123 563.609V565.016H223.248V571.5C225.443 571.5 227.178 571.391 229.123 571.047L229.326 572.516C227.139 572.891 225.232 572.953 222.686 572.953H221.514V563.609H228.123ZM241.694 563.453V564.578H244.538V562.281H246.272V572.562H244.538V569H241.694V570.219H235.053V563.453H241.694ZM236.788 564.828V568.859H239.975V564.828H236.788ZM246.584 574.703V576.109H236.959V571.609H238.725V574.703H246.584ZM241.694 567.609H244.538V566H241.694V567.609ZM250.342 571.531C250.358 569.547 250.921 568.938 251.905 568.328C252.577 567.906 253.077 567.375 253.077 566.594C253.077 565.719 252.405 565.156 251.546 565.156C250.764 565.156 250.014 565.656 249.967 566.703H248.014C248.061 564.609 249.639 563.531 251.561 563.531C253.671 563.531 255.124 564.703 255.124 566.562C255.124 567.828 254.483 568.656 253.467 569.266C252.561 569.812 252.186 570.359 252.171 571.531V571.672H250.342V571.531ZM251.311 575.125C250.639 575.125 250.092 574.578 250.092 573.906C250.092 573.25 250.639 572.703 251.311 572.703C251.952 572.703 252.514 573.25 252.514 573.906C252.514 574.578 251.952 575.125 251.311 575.125Z" fill="#4D4D56"/>
<rect x="24.5" y="595.5" width="344" height="111" rx="15.5" fill="#FAFAFA"/>
<rect x="24.5" y="595.5" width="344" height="111" rx="15.5" stroke="#ECECEE"/>
<path d="M44.6094 627.172C42.2188 627.172 40.7188 625.391 40.7188 622.812C40.7188 620.234 42.25 618.391 44.4531 618.391C46.2969 618.391 48.0781 619.703 48.0781 622.578V623.078H41.7812C41.8281 624.992 42.9141 626.219 44.6094 626.219C45.7812 626.219 46.4688 625.609 46.7656 625.078H47.9062C47.5312 626.25 46.3281 627.172 44.6094 627.172ZM41.7969 622.156H46.9844C46.9844 620.562 45.9531 619.359 44.4688 619.359C42.9297 619.359 41.8828 620.625 41.7969 622.156ZM50.0863 618.516L52.2269 622.094L54.3831 618.516H55.6175L52.8831 622.75L55.6175 627H54.3831L52.2269 623.531L50.0863 627H48.8519L51.5394 622.75L48.8519 618.516H50.0863ZM59.6569 622.688C59.6569 625.578 58.8912 628.062 57.5319 630.188H56.5787C57.6725 628.453 58.5631 625.469 58.5631 622.688C58.5631 619.922 57.6725 616.938 56.5787 615.203H57.5319C58.8912 617.312 59.6569 619.797 59.6569 622.688ZM71.2044 615.406C74.1262 615.406 76.2044 616.812 76.2044 618.953C76.2044 620.984 74.3606 622.32 71.7044 622.469V625.547H77.5637V626.391H64.9387V625.547H70.72V622.469C68.0716 622.328 66.22 620.984 66.22 618.953C66.22 616.812 68.2981 615.406 71.2044 615.406ZM71.2044 616.219C68.8762 616.219 67.1575 617.328 67.1575 618.953C67.1575 620.578 68.8762 621.688 71.2044 621.688C73.5325 621.688 75.2669 620.578 75.2669 618.953C75.2669 617.328 73.5325 616.219 71.2044 616.219ZM89.5563 617.922V618.75H80.1969V614.672H81.15V617.922H89.5563ZM91.0406 620.25V621.078H78.4313V620.25H91.0406ZM89.4 622.453V625.531H81.0719V627.219H89.9V628.016H80.0875V624.766H88.4313V623.25H80.0563V622.453H89.4ZM104.518 621.766V622.578H91.955V621.766H104.518ZM103.127 627.062V627.891H93.6113V623.891H94.6113V627.062H103.127ZM98.2206 614.922C101.174 614.922 103.049 615.922 103.049 617.641C103.049 619.344 101.174 620.359 98.2206 620.359C95.2519 620.359 93.3925 619.344 93.3925 617.641C93.3925 615.922 95.2519 614.922 98.2206 614.922ZM98.2206 615.734C95.9081 615.75 94.3925 616.484 94.4081 617.641C94.3925 618.812 95.9081 619.531 98.2206 619.531C100.533 619.531 102.049 618.812 102.049 617.641C102.049 616.484 100.533 615.75 98.2206 615.734ZM114.143 621.625V624.328C115.534 624.258 116.948 624.141 118.284 623.938L118.362 624.688C115.174 625.25 111.737 625.266 109.237 625.266L109.081 624.422C110.276 624.422 111.682 624.422 113.159 624.359V621.625H114.143ZM114.128 617.141C114.128 619.062 115.753 620.578 117.768 621.172L117.299 621.969C115.635 621.438 114.253 620.336 113.643 618.844C113.057 620.414 111.682 621.57 110.034 622.109L109.549 621.344C111.549 620.719 113.143 619.141 113.143 617.141H109.862V616.297H113.159V614.531H114.143V616.297H117.503V617.141H114.128ZM120.221 614.438V628.234H119.237V614.438H120.221ZM133.464 615.891V617.281C133.448 618.969 133.448 620.844 132.964 623.562L131.964 623.438C132.464 620.844 132.464 618.938 132.479 617.281V616.719H123.87V615.891H133.464ZM135.073 625.328V626.172H122.511V625.328H127.573V620.344H128.542V625.328H135.073ZM140.534 615.469C142.706 615.469 144.206 616.766 144.222 618.656C144.206 620.562 142.706 621.844 140.534 621.844C138.378 621.844 136.847 620.562 136.847 618.656C136.847 616.766 138.378 615.469 140.534 615.469ZM140.534 616.344C138.956 616.344 137.8 617.312 137.816 618.656C137.8 620 138.956 620.984 140.534 620.969C142.113 620.984 143.253 620 143.253 618.656C143.253 617.312 142.113 616.344 140.534 616.344ZM147.238 614.438V628.234H146.253V614.438H147.238ZM136.097 624.25C138.675 624.266 142.206 624.25 145.3 623.781L145.378 624.531C142.191 625.125 138.753 625.125 136.253 625.125L136.097 624.25ZM163.676 614.438V620.203H166.051V621.047H163.676V628.219H162.691V614.438H163.676ZM161.223 616.703V617.531H152.988V616.703H156.66V614.578H157.644V616.703H161.223ZM157.176 618.797C159.113 618.797 160.504 620.078 160.504 621.922C160.504 623.766 159.113 625.047 157.176 625.047C155.238 625.047 153.832 623.766 153.848 621.922C153.832 620.078 155.238 618.797 157.176 618.797ZM157.176 619.625C155.801 619.641 154.785 620.609 154.785 621.922C154.785 623.234 155.801 624.203 157.176 624.188C158.551 624.203 159.566 623.234 159.566 621.922C159.566 620.609 158.551 619.641 157.176 619.625ZM177.621 615.031V618.438H169.121V620.422H177.918V621.266H168.137V617.641H176.621V615.844H168.09V615.031H177.621ZM179.168 622.844V623.656H173.34V628.234H172.356V623.656H166.559V622.844H179.168ZM182.067 615.688L181.989 623.766H180.942L180.864 615.688H182.067ZM181.473 627.078C181.004 627.078 180.629 626.703 180.629 626.25C180.629 625.781 181.004 625.406 181.473 625.406C181.926 625.406 182.301 625.781 182.301 626.25C182.301 626.703 181.926 627.078 181.473 627.078Z" fill="#A6A6B0"/>
<rect x="24" y="739" width="345" height="51" rx="10" fill="#18181B"/>
<path d="M160.667 756.674V763.002H163.11V764.619H160.667V772.564H158.733V756.674H160.667ZM157.503 759.117V760.682H148.134V759.117H151.896V756.902H153.847V759.117H157.503ZM152.88 761.719C155.165 761.719 156.87 763.266 156.87 765.463C156.87 767.66 155.165 769.189 152.88 769.189C150.56 769.189 148.854 767.66 148.872 765.463C148.854 763.266 150.56 761.719 152.88 761.719ZM152.88 763.318C151.632 763.318 150.735 764.162 150.735 765.463C150.735 766.764 151.632 767.59 152.88 767.572C154.093 767.59 154.989 766.764 155.007 765.463C154.989 764.162 154.093 763.318 152.88 763.318ZM176.593 757.219V761.736H167.47V763.318H176.944V764.883H165.501V760.26H174.589V758.801H165.466V757.219H176.593ZM178.28 766.236V767.801H171.97V772.582H170.019V767.801H163.761V766.236H178.28ZM196.931 756.674V772.582H194.979V763.898H191.921V762.299H194.979V756.674H196.931ZM189.442 760.893C189.442 763.635 190.919 766.553 193.485 767.66L192.325 769.225C190.479 768.346 189.161 766.579 188.476 764.479C187.764 766.72 186.419 768.609 184.573 769.541L183.396 768.012C185.944 766.816 187.438 763.793 187.456 760.893V759.838H184.046V758.238H192.853V759.838H189.442V760.893ZM204.858 759.539C204.858 761.49 206.124 763.318 208.603 764.074L207.671 765.604C205.887 765.05 204.621 763.916 203.927 762.475C203.224 764.145 201.879 765.472 199.972 766.113L198.987 764.566C201.554 763.723 202.89 761.666 202.89 759.557V759.363H199.532V757.781H208.163V759.363H204.858V759.539ZM211.696 756.674V760.488H213.911V762.088H211.696V766.148H209.745V756.674H211.696ZM206.528 766.5C209.815 766.5 211.837 767.607 211.854 769.506C211.837 771.422 209.815 772.547 206.528 772.547C203.206 772.547 201.149 771.422 201.149 769.506C201.149 767.607 203.206 766.5 206.528 766.5ZM206.528 768.029C204.349 768.029 203.101 768.539 203.101 769.506C203.101 770.49 204.349 771.018 206.528 771.018C208.708 771.018 209.921 770.49 209.921 769.506C209.921 768.539 208.708 768.029 206.528 768.029ZM227.165 756.674V763.002H229.608V764.619H227.165V772.564H225.231V756.674H227.165ZM224.001 759.117V760.682H214.632V759.117H218.394V756.902H220.345V759.117H224.001ZM219.378 761.719C221.663 761.719 223.368 763.266 223.368 765.463C223.368 767.66 221.663 769.189 219.378 769.189C217.058 769.189 215.353 767.66 215.37 765.463C215.353 763.266 217.058 761.719 219.378 761.719ZM219.378 763.318C218.13 763.318 217.233 764.162 217.233 765.463C217.233 766.764 218.13 767.59 219.378 767.572C220.591 767.59 221.487 766.764 221.505 765.463C221.487 764.162 220.591 763.318 219.378 763.318ZM243.548 756.674V772.564H241.579V756.674H243.548ZM238.802 758.361C238.802 763.09 236.974 767.115 231.401 769.752L230.382 768.188C234.539 766.21 236.473 763.521 236.815 759.908H231.19V758.361H238.802Z" fill="white"/>
</g>
<defs>
<clipPath id="clip0_2028_14498">
<rect width="393" height="852" rx="50" fill="white"/>
</clipPath>
</defs>
</svg>
