<svg width="28" height="28" viewBox="0 0 28 28" fill="none" xmlns="http://www.w3.org/2000/svg">
<rect width="28" height="28" rx="14" fill="#82AEFF"/>
<ellipse cx="10.25" cy="11.25" rx="1.5" ry="1.75" fill="#18181B"/>
<ellipse cx="17.75" cy="11.25" rx="1.5" ry="1.75" fill="#18181B"/>
<path d="M21.75 16.3077C21.75 17.2423 21.0225 18 20.125 18C19.2275 18 18.5 17.2423 18.5 16.3077C18.5 15.3731 20.125 12.5 20.125 12.5C20.125 12.5 21.75 15.3731 21.75 16.3077Z" fill="white"/>
<path fill-rule="evenodd" clip-rule="evenodd" d="M19.25 18.881C19.2501 18.8812 19.2503 18.8814 18.8724 19.1902C18.4946 19.499 18.4947 19.4992 18.4948 19.4993L18.495 19.4995L18.4953 19.4999C18.4954 19.5 18.4954 19.5 18.4953 19.4999L18.4935 19.4978L18.4824 19.4846C18.4716 19.4721 18.4542 19.4521 18.4302 19.4257C18.3821 19.3731 18.3081 19.2951 18.209 19.2003C18.0106 19.0103 17.7136 18.7544 17.326 18.4981C16.5504 17.9853 15.4243 17.4783 14 17.4783C12.5757 17.4783 11.4496 17.9853 10.674 18.4981C10.2864 18.7544 9.98943 19.0103 9.79097 19.2003C9.69189 19.2951 9.61786 19.373 9.56984 19.4257C9.54585 19.4521 9.5284 19.4721 9.51761 19.4846L9.50647 19.4978L9.50521 19.4993C9.50532 19.4992 9.50544 19.499 9.12759 19.1902C8.74973 18.8814 8.74986 18.8812 8.75 18.881L8.75032 18.8807L8.75108 18.8797L8.7531 18.8773L8.75913 18.87L8.77916 18.8463C8.79603 18.8267 8.81994 18.7993 8.85079 18.7655C8.91245 18.6978 9.00199 18.6038 9.1185 18.4923C9.35121 18.2695 9.69343 17.9751 10.138 17.6812C11.0268 17.0935 12.3369 16.5 14 16.5C15.6631 16.5 16.9732 17.0935 17.862 17.6812C18.3066 17.9751 18.6488 18.2695 18.8815 18.4923C18.998 18.6038 19.0875 18.6978 19.1492 18.7655C19.1801 18.7993 19.204 18.8267 19.2208 18.8463L19.2409 18.87L19.2469 18.8773L19.2489 18.8797L19.2497 18.8807L19.25 18.881ZM9.50475 19.4999C9.50462 19.5 9.5046 19.5 9.50468 19.4999L9.50475 19.4999Z" fill="#18181B"/>
</svg>
