<svg width="28" height="28" viewBox="0 0 28 28" fill="none" xmlns="http://www.w3.org/2000/svg">
<rect width="28" height="28" rx="14" fill="#90E0D0"/>
<path fill-rule="evenodd" clip-rule="evenodd" d="M9.00001 16.6975C8.99986 16.6974 8.99972 16.6972 9.36759 16.3492C9.73546 16.0012 9.73533 16.001 9.73521 16.0009L9.735 16.0006L9.73469 16.0002C9.73453 16 9.73448 16 9.73453 16L9.73601 16.0018L9.74618 16.014C9.75614 16.0258 9.77243 16.0447 9.79493 16.0697C9.83996 16.1198 9.90971 16.1942 10.0032 16.2849C10.1906 16.4666 10.4716 16.7121 10.8389 16.9582C11.5734 17.4504 12.6439 17.9397 14 17.9397C15.3561 17.9397 16.4266 17.4504 17.1611 16.9582C17.5284 16.7121 17.8094 16.4666 17.9968 16.2849C18.0903 16.1942 18.16 16.1198 18.2051 16.0697C18.2276 16.0447 18.2439 16.0258 18.2538 16.014L18.264 16.0018L18.2648 16.0009C18.2647 16.001 18.2645 16.0012 18.6324 16.3492C19.0003 16.6972 19.0001 16.6974 19 16.6975L18.9997 16.6979L18.9989 16.6989L18.9969 16.7014L18.9909 16.7087L18.9715 16.732C18.9551 16.7513 18.9321 16.7779 18.9024 16.8109C18.8432 16.8768 18.7574 16.9681 18.646 17.0761C18.4234 17.2921 18.0967 17.5768 17.6728 17.8608C16.825 18.429 15.5792 19 14 19C12.4208 19 11.175 18.429 10.3272 17.8608C9.9033 17.5768 9.5766 17.2921 9.354 17.0761C9.24257 16.9681 9.1568 16.8768 9.09755 16.8109C9.06792 16.7779 9.04488 16.7513 9.02855 16.732L9.00908 16.7087L9.00313 16.7014L9.00111 16.6989L9.00033 16.6979L9.00001 16.6975Z" fill="#18181B"/>
<path fill-rule="evenodd" clip-rule="evenodd" d="M7.98068 11.7463C7.98073 11.746 7.98079 11.7458 7.49034 11.6302C6.99988 11.5147 6.99994 11.5144 7 11.5141L7.00013 11.5135L7.0004 11.5122L7.00106 11.5092L7.00282 11.5013L7.00817 11.4786C7.01258 11.4606 7.01876 11.4367 7.02698 11.4078C7.04339 11.3501 7.06814 11.2718 7.10356 11.1797C7.17391 10.9966 7.28922 10.7516 7.47057 10.5044C7.84369 9.99592 8.48451 9.5 9.5 9.5C10.5155 9.5 11.1563 9.99592 11.5294 10.5044C11.7108 10.7516 11.8261 10.9966 11.8964 11.1797C11.9319 11.2718 11.9566 11.3501 11.973 11.4078C11.9812 11.4367 11.9874 11.4606 11.9918 11.4786L11.9972 11.5013L11.9989 11.5092L11.9996 11.5122L11.9999 11.5135L12 11.5141C12.0001 11.5144 12.0001 11.5147 11.5097 11.6302C11.0192 11.7458 11.0193 11.746 11.0193 11.7463L11.0194 11.7468L11.0196 11.7476L11.0199 11.749C11.02 11.7497 11.0201 11.75 11.0201 11.75L11.0192 11.7459C11.0178 11.7406 11.0152 11.7301 11.011 11.7154C11.0025 11.6856 10.988 11.6392 10.9659 11.5815C10.9211 11.465 10.848 11.3106 10.7363 11.1584C10.5232 10.868 10.1592 10.5651 9.5 10.5651C8.84078 10.5651 8.47676 10.868 8.26373 11.1584C8.152 11.3106 8.0789 11.465 8.03412 11.5815C8.01197 11.6392 7.99747 11.6856 7.98902 11.7154C7.98481 11.7301 7.98215 11.7406 7.98084 11.7459L7.97988 11.75C7.97987 11.75 7.97995 11.7497 7.98011 11.749L7.98039 11.7476L7.98058 11.7468L7.98068 11.7463Z" fill="#18181B"/>
<path fill-rule="evenodd" clip-rule="evenodd" d="M16.9807 11.7463C16.9807 11.746 16.9808 11.7458 16.4903 11.6302C15.9999 11.5147 15.9999 11.5144 16 11.5141L16.0001 11.5135L16.0004 11.5122L16.0011 11.5092L16.0028 11.5013L16.0082 11.4786C16.0126 11.4606 16.0188 11.4367 16.027 11.4078C16.0434 11.3501 16.0681 11.2718 16.1036 11.1797C16.1739 10.9966 16.2892 10.7516 16.4706 10.5044C16.8437 9.99592 17.4845 9.5 18.5 9.5C19.5155 9.5 20.1563 9.99592 20.5294 10.5044C20.7108 10.7516 20.8261 10.9966 20.8964 11.1797C20.9319 11.2718 20.9566 11.3501 20.973 11.4078C20.9812 11.4367 20.9874 11.4606 20.9918 11.4786L20.9972 11.5013L20.9989 11.5092L20.9996 11.5122L20.9999 11.5135L21 11.5141C21.0001 11.5144 21.0001 11.5147 20.5097 11.6302C20.0192 11.7458 20.0193 11.746 20.0193 11.7463L20.0194 11.7468L20.0196 11.7476L20.0199 11.749L20.02 11.7496L20.0201 11.75L20.0192 11.7459C20.0178 11.7406 20.0152 11.7301 20.011 11.7154C20.0025 11.6856 19.988 11.6392 19.9659 11.5815C19.9211 11.465 19.848 11.3106 19.7363 11.1584C19.5232 10.868 19.1592 10.5651 18.5 10.5651C17.8408 10.5651 17.4768 10.868 17.2637 11.1584C17.152 11.3106 17.0789 11.465 17.0341 11.5815C17.012 11.6392 16.9975 11.6856 16.989 11.7154C16.9848 11.7301 16.9822 11.7406 16.9808 11.7459L16.9799 11.75C16.9799 11.75 16.98 11.7497 16.9801 11.749L16.9804 11.7476L16.9806 11.7468L16.9807 11.7463Z" fill="#18181B"/>
</svg>
