<svg width="28" height="28" viewBox="0 0 28 28" fill="none" xmlns="http://www.w3.org/2000/svg">
<rect width="28" height="28" rx="14" fill="#FF8C82"/>
<path fill-rule="evenodd" clip-rule="evenodd" d="M20.25 19.4543C20.2501 19.4545 20.2503 19.4546 19.8566 19.7271C19.4629 19.9996 19.463 19.9997 19.4631 19.9999C19.4633 20.0001 19.4631 19.9999 19.4631 19.9999L19.4605 19.9965L19.4458 19.9785C19.432 19.9616 19.4101 19.9354 19.3803 19.9013C19.3208 19.8329 19.2297 19.7328 19.1084 19.6114C18.8655 19.3682 18.5033 19.0422 18.0317 18.7161C17.0872 18.0632 15.722 17.422 14 17.422C12.278 17.422 10.9128 18.0632 9.96832 18.7161C9.49667 19.0422 9.13455 19.3682 8.89157 19.6114C8.77028 19.7328 8.67925 19.8329 8.61967 19.9013C8.58989 19.9354 8.56802 19.9616 8.5542 19.9785L8.53955 19.9965L8.53691 19.9999C8.53701 19.9997 8.53712 19.9996 8.14343 19.7271C7.74975 19.4546 7.74987 19.4545 7.75001 19.4543L7.75108 19.4529L7.75321 19.4502L7.75985 19.4418C7.76534 19.435 7.77295 19.4255 7.78266 19.4137C7.80208 19.39 7.82993 19.3567 7.86608 19.3153C7.93833 19.2324 8.04391 19.1164 8.18175 18.9785C8.45703 18.703 8.86323 18.3375 9.39184 17.972C10.4479 17.2419 12.011 16.5 14 16.5C15.989 16.5 17.5521 17.2419 18.6082 17.972C19.1368 18.3375 19.543 18.703 19.8183 18.9785C19.9561 19.1164 20.0617 19.2324 20.1339 19.3153C20.1701 19.3567 20.1979 19.39 20.2173 19.4137C20.2271 19.4255 20.2347 19.435 20.2402 19.4418L20.2468 19.4502L20.2489 19.4529L20.25 19.4543Z" fill="#18181B"/>
<ellipse cx="10.25" cy="11.4321" rx="1.5" ry="1.75" fill="#18181B"/>
<path fill-rule="evenodd" clip-rule="evenodd" d="M8.86091 7.95726L12.0429 11.1392L12.75 10.4321L9.56802 7.25015L8.86091 7.95726Z" fill="#18181B"/>
<ellipse cx="1.5" cy="1.75" rx="1.5" ry="1.75" transform="matrix(-1 0 0 1 19.25 9.68213)" fill="#18181B"/>
<path fill-rule="evenodd" clip-rule="evenodd" d="M19.1391 7.95726L15.9571 11.1392L15.25 10.4321L18.432 7.25015L19.1391 7.95726Z" fill="#18181B"/>
</svg>
